<svg width="22" height="160" viewBox="0 0 22 160" fill="none" xmlns="http://www.w3.org/2000/svg">
<path d="M7.33003 3L21.27 53.63C21.71 55.23 19.73 155.63 19.9 157.09C19.9 157.62 19.6893 158.129 19.3142 158.504C18.9391 158.879 18.4305 159.09 17.9 159.09C17.3696 159.09 16.8609 158.879 16.4858 158.504C16.1107 158.129 15.9 157.62 15.9 157.09L14.4 54.56L14.52 55.49L0.58003 4.85998C0.333379 3.96488 0.452375 3.00845 0.910902 2.20111C1.36943 1.39376 2.12993 0.801641 3.02504 0.554989C3.92014 0.308338 4.87657 0.427395 5.68391 0.885922C6.49126 1.34445 7.08338 2.10489 7.33003 3Z" fill="#100C30"/>
</svg>
