<svg width="763" height="216" viewBox="0 0 763 216" fill="none" xmlns="http://www.w3.org/2000/svg">
<path d="M758.58 175.19C758.435 177.589 757.915 179.951 757.04 182.19C751.94 194.38 735.3 206.31 689.67 206.31L663.87 206.56C659.82 198.658 653.65 192.04 646.052 187.445C638.453 182.851 629.726 180.463 620.847 180.548C611.968 180.634 603.288 183.189 595.779 187.927C588.27 192.666 582.228 199.402 578.33 207.38L227.84 210.7C224.183 200.636 217.494 191.954 208.695 185.852C199.895 179.75 189.42 176.529 178.712 176.632C168.005 176.735 157.593 180.158 148.913 186.428C140.233 192.698 133.712 201.507 130.25 211.64L115.51 211.78C115.51 211.78 65.67 213.01 38.77 184.27C38.77 184.27 4.21997 195.58 4.21997 169.27C4.21997 142.96 22.87 140.27 22.87 140.27C22.87 140.27 228.87 -22.86 406.08 8.27002C412.173 9.33255 417.896 11.9272 422.71 15.81L490.49 70.61C501.695 79.6707 515.361 85.1607 529.72 86.37L705.15 101C709.429 101.341 713.528 102.868 716.987 105.41C720.446 107.952 723.127 111.408 724.73 115.39C730.112 129.003 738.449 141.251 749.14 151.25C752.406 154.279 754.95 158.003 756.583 162.146C758.217 166.29 758.9 170.747 758.58 175.19Z" fill="#8C60A9" stroke="#100C30" stroke-width="7" stroke-linecap="round" stroke-linejoin="round"/>
</svg>
